<mxfile host="65bd71144e">
    <diagram id="VIvcTmYsxsRc4fpVWjU3" name="Page-1">
        <mxGraphModel dx="909" dy="1771" grid="1" gridSize="10" guides="1" tooltips="1" connect="1" arrows="1" fold="1" page="1" pageScale="1" pageWidth="850" pageHeight="1100" math="0" shadow="0">
            <root>
                <mxCell id="0"/>
                <mxCell id="1" parent="0"/>
                <mxCell id="2" value="OpenShift" style="swimlane;fillColor=#f8cecc;strokeColor=#b85450;" vertex="1" parent="1">
                    <mxGeometry x="40" y="-10" width="360" height="440" as="geometry"/>
                </mxCell>
                <mxCell id="4" value="openshift-gitops" style="swimlane;fillColor=#f8cecc;strokeColor=#b85450;" vertex="1" parent="2">
                    <mxGeometry x="30" y="40" width="260" height="110" as="geometry"/>
                </mxCell>
                <mxCell id="8" value="ArgoCD Apps" style="rounded=0;whiteSpace=wrap;html=1;fillColor=#d5e8d4;strokeColor=none;shadow=1;" vertex="1" parent="4">
                    <mxGeometry x="10" y="40" width="90" height="30" as="geometry"/>
                </mxCell>
                <mxCell id="6" value="openshift-operators" style="swimlane;fillColor=#f8cecc;strokeColor=#b85450;" vertex="1" parent="2">
                    <mxGeometry x="30" y="165" width="260" height="110" as="geometry"/>
                </mxCell>
                <mxCell id="7" value="event streams operator" style="rounded=0;whiteSpace=wrap;html=1;fillColor=#dae8fc;strokeColor=none;shadow=1;" vertex="1" parent="6">
                    <mxGeometry x="19" y="35" width="221" height="20" as="geometry"/>
                </mxCell>
                <mxCell id="24" value="4" style="ellipse;whiteSpace=wrap;html=1;aspect=fixed;shadow=1;fontColor=#FFFFFF;fillColor=#000000;" vertex="1" parent="6">
                    <mxGeometry x="100" y="85" width="20" height="20" as="geometry"/>
                </mxCell>
                <mxCell id="9" value="event-streams-sol-ns" style="swimlane;fillColor=#dae8fc;strokeColor=#6c8ebf;" vertex="1" parent="2">
                    <mxGeometry x="30" y="300" width="290" height="110" as="geometry"/>
                </mxCell>
                <mxCell id="10" value="event streams brokers" style="rounded=0;whiteSpace=wrap;html=1;fillColor=#dae8fc;strokeColor=none;shadow=1;" vertex="1" parent="9">
                    <mxGeometry x="19" y="40" width="120" height="60" as="geometry"/>
                </mxCell>
                <mxCell id="11" value="schema registry" style="rounded=0;whiteSpace=wrap;html=1;fillColor=#dae8fc;strokeColor=none;shadow=1;" vertex="1" parent="9">
                    <mxGeometry x="150" y="40" width="120" height="60" as="geometry"/>
                </mxCell>
                <mxCell id="16" style="edgeStyle=orthogonalEdgeStyle;html=1;fontColor=#FFFFFF;" edge="1" parent="2" source="7" target="10">
                    <mxGeometry relative="1" as="geometry"/>
                </mxCell>
                <mxCell id="3" value="Git" style="swimlane;fillColor=#000000;strokeColor=#b85450;fontColor=#FFFFFF;verticalAlign=top;" vertex="1" parent="1">
                    <mxGeometry x="480" y="110" width="300" height="150" as="geometry"/>
                </mxCell>
                <mxCell id="5" value="Solution-Gitops&lt;br&gt;&lt;br&gt;cluster, topics, users" style="rounded=0;whiteSpace=wrap;html=1;fillColor=#d5e8d4;strokeColor=none;shadow=1;verticalAlign=top;" vertex="1" parent="3">
                    <mxGeometry x="90" y="60" width="120" height="60" as="geometry"/>
                </mxCell>
                <mxCell id="12" value="ArgoCD Apps" style="rounded=0;whiteSpace=wrap;html=1;fillColor=#d5e8d4;strokeColor=none;shadow=1;" vertex="1" parent="1">
                    <mxGeometry x="90" y="80" width="90" height="30" as="geometry"/>
                </mxCell>
                <mxCell id="15" style="edgeStyle=orthogonalEdgeStyle;html=1;entryX=0;entryY=0.5;entryDx=0;entryDy=0;fontColor=#FFFFFF;" edge="1" parent="1" source="13" target="9">
                    <mxGeometry relative="1" as="geometry">
                        <Array as="points">
                            <mxPoint x="60" y="105"/>
                            <mxPoint x="60" y="345"/>
                        </Array>
                    </mxGeometry>
                </mxCell>
                <mxCell id="13" value="ArgoCD Apps" style="rounded=0;whiteSpace=wrap;html=1;fillColor=#d5e8d4;strokeColor=none;shadow=1;" vertex="1" parent="1">
                    <mxGeometry x="100" y="90" width="90" height="30" as="geometry"/>
                </mxCell>
                <mxCell id="14" style="edgeStyle=orthogonalEdgeStyle;html=1;entryX=1;entryY=0.5;entryDx=0;entryDy=0;fontColor=#FFFFFF;" edge="1" parent="1" source="5" target="13">
                    <mxGeometry relative="1" as="geometry">
                        <Array as="points">
                            <mxPoint x="440" y="200"/>
                            <mxPoint x="440" y="105"/>
                        </Array>
                    </mxGeometry>
                </mxCell>
                <mxCell id="17" style="edgeStyle=orthogonalEdgeStyle;html=1;exitX=0;exitY=0.75;exitDx=0;exitDy=0;fontColor=#FFFFFF;" edge="1" parent="1" source="5" target="7">
                    <mxGeometry relative="1" as="geometry"/>
                </mxCell>
                <mxCell id="18" value="1" style="ellipse;whiteSpace=wrap;html=1;aspect=fixed;shadow=1;fontColor=#FFFFFF;fillColor=#000000;" vertex="1" parent="1">
                    <mxGeometry x="430" y="210" width="20" height="20" as="geometry"/>
                </mxCell>
                <mxCell id="19" value="2" style="ellipse;whiteSpace=wrap;html=1;aspect=fixed;shadow=1;fontColor=#FFFFFF;fillColor=#000000;" vertex="1" parent="1">
                    <mxGeometry x="425" y="80" width="20" height="20" as="geometry"/>
                </mxCell>
                <mxCell id="23" value="3" style="ellipse;whiteSpace=wrap;html=1;aspect=fixed;shadow=1;fontColor=#FFFFFF;fillColor=#000000;" vertex="1" parent="1">
                    <mxGeometry x="20" y="210" width="20" height="20" as="geometry"/>
                </mxCell>
            </root>
        </mxGraphModel>
    </diagram>
</mxfile>